<svg version="1.1" id="Layer_1" xmlns="http://www.w3.org/2000/svg" xmlns:xlink="http://www.w3.org/1999/xlink" x="0px" y="0px"
	 width="100%" viewBox="0 0 1024 1024" enable-background="new 0 0 1024 1024" xml:space="preserve">
<path fill="#000000" opacity="1.000000" stroke="none" 
	d="
M614.894653,439.099243 
	C630.662659,454.104462 644.386536,470.340698 656.040527,488.340027 
	C658.146606,491.592804 657.719666,493.642578 655.435242,496.636963 
	C640.933289,515.646545 623.308472,530.080811 599.234985,534.642029 
	C577.121277,538.831970 555.507751,536.249268 534.450317,528.342102 
	C523.229614,524.128662 511.877472,520.265015 500.581940,516.251160 
	C498.872864,515.643860 497.200806,514.819397 495.151215,515.174561 
	C493.223969,517.508606 493.427216,520.382935 493.429718,523.166992 
	C493.463257,560.803528 493.838074,598.434631 495.349426,636.046204 
	C495.362793,636.379150 495.358582,636.713196 495.382660,637.045288 
	C496.247620,648.978271 496.244965,648.872131 484.386230,649.207397 
	C449.740631,650.187073 415.085571,650.289673 380.463989,648.892029 
	C344.210297,647.428650 307.990997,645.345459 271.862976,641.608704 
	C241.562668,638.474670 211.365891,634.694946 181.221313,630.376892 
	C177.236267,629.806030 175.861511,628.284241 175.986755,624.278870 
	C177.281845,582.855347 186.823639,543.586975 206.491608,506.970123 
	C231.713699,460.012909 267.854645,423.945251 314.888000,398.846527 
	C323.313446,394.350403 323.329071,394.537537 330.441437,400.526581 
	C366.439178,430.838562 407.854279,443.859985 454.700012,438.974152 
	C489.092041,435.387177 519.039551,421.528290 544.799194,398.630798 
	C548.429932,395.403503 551.188232,394.693298 555.682068,397.095886 
	C577.108765,408.551331 596.883545,422.256287 614.894653,439.099243 
z"/>
<path fill="#000000" opacity="1.000000" stroke="none" 
	d="
M353.527466,179.496887 
	C378.597260,158.530609 407.216858,148.588623 439.475830,148.859528 
	C493.951843,149.317032 544.736267,187.926971 559.498413,240.392349 
	C571.734436,283.879639 564.060120,323.747528 535.490356,358.704956 
	C511.097382,388.551697 478.894440,403.998260 440.260651,405.314789 
	C379.781372,407.375702 326.985382,366.326630 312.444824,308.997406 
	C304.128357,276.207886 308.081085,244.567017 324.642212,214.753906 
	C332.088440,201.349335 341.626312,189.692444 353.527466,179.496887 
z"/>
<path fill="#000000" opacity="1.000000" stroke="none" 
	d="
M559.219604,559.704651 
	C577.869995,561.985046 595.878723,561.467529 613.577576,556.097229 
	C636.303833,549.201477 654.729858,536.095215 669.612732,517.725708 
	C674.086060,512.204468 674.310059,512.274963 678.890625,517.956055 
	C698.795532,542.643372 724.472168,557.045776 755.973816,560.450684 
	C769.749146,561.939575 783.596069,561.079651 797.257141,558.373840 
	C798.842590,558.059814 800.435303,557.232727 802.031372,558.299683 
	C802.494141,559.767273 801.404785,560.478760 800.610474,561.263855 
	C790.418640,571.338562 780.157471,581.343750 770.041016,591.493347 
	C767.726074,593.815796 765.315308,594.608643 762.048584,594.517029 
	C730.531189,593.632568 702.266357,583.790833 677.661072,563.972961 
	C674.795593,561.664917 673.120544,562.026611 670.482117,564.137024 
	C646.393066,583.405029 618.827759,593.198364 588.035461,594.511597 
	C578.162354,594.932678 568.401550,594.392151 558.652405,593.259583 
	C553.821533,592.698425 552.198181,594.841675 552.460205,599.153259 
	C553.772034,620.741882 554.329346,642.374817 556.528931,663.911926 
	C558.455322,682.774231 559.807556,701.682251 563.181274,720.392761 
	C573.022278,774.972046 603.705811,812.502197 654.566650,834.256714 
	C668.060242,840.028320 680.421814,839.732544 693.927368,834.226318 
	C735.671570,817.207275 763.616821,787.103088 779.186279,745.421143 
	C784.949890,729.990784 786.734070,713.398804 788.640015,697.017151 
	C788.897339,694.805542 789.274353,692.807739 790.955078,691.150391 
	C801.396729,680.854370 811.791504,670.510803 822.215637,660.196960 
	C822.908264,659.511597 823.613525,658.729919 825.263611,659.049500 
	C826.689331,662.912354 825.361877,667.044983 825.033936,670.978516 
	C823.596130,688.221252 822.194824,705.482849 819.437988,722.583313 
	C812.681702,764.491089 793.362427,799.865051 763.381226,829.592346 
	C739.558289,853.213623 710.827881,867.899658 678.413086,875.782349 
	C675.749329,876.430115 673.187134,876.524475 670.525391,875.892273 
	C616.063110,862.956116 576.347290,831.107788 549.373840,782.383667 
	C535.018066,756.451904 528.704285,728.472290 525.914368,699.393738 
	C521.331726,651.629944 518.037964,603.800415 518.655762,555.771790 
	C518.749512,548.482300 518.773376,548.414673 525.505737,550.973999 
	C536.280945,555.070007 547.368591,557.984131 559.219604,559.704651 
z"/>
<path fill="#000000" opacity="1.000000" stroke="none" 
	d="
M752.097473,639.096558 
	C773.348633,618.139099 794.347473,597.429077 815.366699,576.739807 
	C820.997803,571.197083 823.942200,571.259521 829.615173,576.990356 
	C835.241882,582.674377 840.860962,588.366699 846.420227,594.116455 
	C850.495361,598.331299 850.599731,602.245300 846.471497,606.320068 
	C815.876526,636.518982 785.221924,666.657410 754.592896,696.821777 
	C733.701782,717.395874 712.821167,737.980591 691.937378,758.562073 
	C687.666382,762.771362 683.466187,767.055054 679.118347,771.183289 
	C673.258301,776.747192 670.312927,776.730408 664.946045,770.779602 
	C638.052246,740.960022 611.231323,711.074829 584.378784,681.218079 
	C579.921692,676.262268 575.366577,671.392822 570.981201,666.374756 
	C566.724670,661.504150 566.959290,658.253296 571.698608,653.947144 
	C577.864746,648.344727 584.018982,642.727295 590.273438,637.224487 
	C595.347229,632.760376 598.653137,632.896179 603.116821,637.856201 
	C623.847961,660.892639 644.519104,683.983032 665.210999,707.054810 
	C666.212158,708.171143 667.166321,709.332336 668.209351,710.407654 
	C672.594788,714.928772 674.993347,714.996643 679.535217,710.531677 
	C691.298889,698.967163 702.998047,687.337097 714.753479,675.764160 
	C727.101440,663.607971 739.484924,651.487732 752.097473,639.096558 
z"/>
</svg>